# File created by Blade
# Date/Time:  Wed Jan 21 17:10:49 2015
#---------------------------------------------------------
:version 1.10
:name HOM
:units
  mass 1.0
  length 1.000000
  angle deg
:documentation
     Acclaim Skeleton File
:root
   axis xyz
   order TX TY TZ RX RY RZ
   position 0.000000 0.000000 0.000000
   orientation 0 0 0
:bonedata
   begin
      id 1
      name Spine_dum
      direction 0.000000 1.000000 0.000000
      length 7.067664
      axis 0.0 0.0 0.0 xyz
   end
   begin
      id 2
      name LeftUpLeg_dum
      direction 1.000000 0.000000 0.000000
      length 4.013002
      axis 0.0 0.0 0.0 xyz
   end
   begin
      id 3
      name RightUpLeg_dum
      direction -1.000000 0.000000 0.000000
      length 4.013002
      axis 0.0 0.0 0.0 xyz
   end
   begin
      id 4
      name Spine
      direction 0.000000 1.000000 0.000000
      length 0.000000
      axis 0.0 0.0 0.0 xyz
      dof rx ry rz
   end
   begin
      id 5
      name Spine_dum1
      direction 0.000000 1.000000 0.000000
      length 15.039886
      axis 0.0 0.0 0.0 xyz
   end
   begin
      id 6
      name Spine_dum2
      direction 0.000000 1.000000 0.000000
      length 10.530368
      axis 0.0 0.0 0.0 xyz
   end
   begin
      id 7
      name Spine_dum3
      direction 0.000000 1.000000 0.000000
      length 10.530368
      axis 0.0 0.0 0.0 xyz
   end
   begin
      id 8
      name Head
      direction 0.000000 1.000000 0.000000
      length 4.527550
      axis 0.0 0.0 0.0 xyz
      dof rx ry rz
   end
   begin
      id 9
      name LeftShoulder
      direction 1.000000 0.000000 0.000000
      length 7.028855
      axis 0.0 0.0 -90.0 xyz
      dof rx ry rz
   end
   begin
      id 10
      name LeftArm
      direction 1.000000 0.000000 0.000000
      length 10.797705
      axis 0.0 0.0 -90.0 xyz
      dof rx ry rz
   end
   begin
      id 11
      name LeftForeArm
      direction 1.000000 0.000000 0.000000
      length 7.907442
      axis 0.0 0.0 -90.0 xyz
      dof ry rz rx
   end
   begin
      id 12
      name LeftHand
      direction 0.000000 0.000000 0.000000
      length 0.000000
      axis 0.0 0.0 -90.0 xyz
      dof rx ry rz
   end
   begin
      id 13
      name LeftHand_dum1
      direction 0.000000 0.000000 0.000000
      length 0.000000
      axis 0.0 0.0 -90.0 xyz
   end
   begin
      id 14
      name LeftHand_dum2
      direction 1.000000 0.000000 0.000000
      length 3.937000
      axis 0.0 0.0 -90.0 xyz
   end
   begin
      id 15
      name LeftHandThumb1
      direction 0.000000 0.000000 1.000000
      length 3.937000
      axis 0.0 0.0 -90.0 xyz
      dof rx rz ry
   end
   begin
      id 16
      name RightShoulder
      direction -1.000000 0.000000 0.000000
      length 7.028855
      axis 0.0 0.0 90.0 xyz
      dof rx ry rz
   end
   begin
      id 17
      name RightArm
      direction -1.000000 0.000000 0.000000
      length 10.797705
      axis 0.0 0.0 90.0 xyz
      dof rx ry rz
   end
   begin
      id 18
      name RightForeArm
      direction -1.000000 0.000000 0.000000
      length 7.907442
      axis 0.0 0.0 90.0 xyz
      dof ry rz rx
   end
   begin
      id 19
      name RightHand
      direction 0.000000 0.000000 0.000000
      length 0.000000
      axis 0.0 0.0 90.0 xyz
      dof rx ry rz
   end
   begin
      id 20
      name RightHand_dum1
      direction 0.000000 0.000000 0.000000
      length 0.000000
      axis 0.0 0.0 90.0 xyz
   end
   begin
      id 21
      name RightHand_dum2
      direction -1.000000 0.000000 0.000000
      length 3.937000
      axis 0.0 0.0 90.0 xyz
   end
   begin
      id 22
      name RightHandThumb1
      direction 0.000000 0.000000 1.000000
      length 3.937000
      axis 0.0 0.0 90.0 xyz
      dof rx rz ry
   end
   begin
      id 23
      name LeftUpLeg
      direction 0.000000 -1.000000 0.000000
      length 16.899758
      axis 0.0 0.0 0.0 xyz
      dof rx ry rz
   end
   begin
      id 24
      name LeftLeg
      direction 0.000000 -1.000000 0.000000
      length 17.389183
      axis 0.0 0.0 0.0 xyz
      dof rx ry rz
   end
   begin
      id 25
      name LeftFoot
      direction 0.000000 -0.258819 0.965926
      length 4.924528
      axis 15.0 0.0 0.0 xyz
      dof rx ry rz
   end
   begin
      id 26
      name LeftToeBase
      direction 0.000000 0.000000 1.000000
      length 2.952750
      axis 0.0 0.0 0.0 xyz
      dof rx ry rz
   end
   begin
      id 27
      name RightUpLeg
      direction 0.000000 -1.000000 0.000000
      length 16.899758
      axis 0.0 0.0 0.0 xyz
      dof rx ry rz
   end
   begin
      id 28
      name RightLeg
      direction 0.000000 -1.000000 0.000000
      length 17.389183
      axis 0.0 0.0 0.0 xyz
      dof rx ry rz
   end
   begin
      id 29
      name RightFoot
      direction 0.000000 -0.258819 0.965926
      length 4.924528
      axis 15.0 0.0 0.0 xyz
      dof rx ry rz
   end
   begin
      id 30
      name RightToeBase
      direction 0.000000 0.000000 1.000000
      length 2.952750
      axis 0.0 0.0 0.0 xyz
      dof rx ry rz
   end
:hierarchy
   begin
      root Spine_dum LeftUpLeg_dum RightUpLeg_dum
      Spine_dum Spine
      LeftUpLeg_dum LeftUpLeg
      RightUpLeg_dum RightUpLeg
      Spine Spine_dum1 Spine_dum2 Spine_dum3
      Spine_dum1 Head
      Spine_dum2 LeftShoulder
      Spine_dum3 RightShoulder
      LeftShoulder LeftArm
      LeftArm LeftForeArm
      LeftForeArm LeftHand
      LeftHand LeftHand_dum1 LeftHand_dum2
      LeftHand_dum1 LeftHandThumb1
      RightShoulder RightArm
      RightArm RightForeArm
      RightForeArm RightHand
      RightHand RightHand_dum1 RightHand_dum2
      RightHand_dum1 RightHandThumb1
      LeftUpLeg LeftLeg
      LeftLeg LeftFoot
      LeftFoot LeftToeBase
      RightUpLeg RightLeg
      RightLeg RightFoot
      RightFoot RightToeBase
   end

# File created by Blade
# Date/Time:  Wed Jan 21 17:10:37 2015
# Frame Rate: 120.000 fps
#------------------------------------------------------
:FULLY-SPECIFIED
:DEGREES
142
root 21.226216 35.705534 -19.303117 -176.584514 -4.717877 -179.691748
Spine 28.654551 2.651716 -0.081414
Head 25.465442 -1.681627 1.482946
LeftShoulder -3.702601 -20.252605 -7.582488
LeftArm -7.093473 11.206988 -72.174510
LeftForeArm 19.526290 -0.000000 3.619328
LeftHand 0.739709 -0.000000 -10.118472
LeftHandThumb1 -26.253704 0.000000 33.147579
RightShoulder -1.406468 -12.598478 4.886946
RightArm 24.462290 -11.151185 66.360534
RightForeArm -25.220850 -0.000000 15.548861
RightHand -5.231043 -0.000000 -2.141003
RightHandThumb1 -24.326973 -0.000000 -32.862282
LeftUpLeg -19.679463 3.647748 -2.781512
LeftLeg 19.872849 -0.000000 -0.000000
LeftFoot -21.733873 23.267793 -14.113299
LeftToeBase 18.374408 -0.000000 -0.000000
RightUpLeg -10.043571 -11.152234 2.950107
RightLeg 11.839689 -0.000000 -0.000000
RightFoot -24.497778 -29.349787 17.218137
RightToeBase 19.936615 -0.000000 -0.000000
143
root 21.183494 35.691878 -19.341794 -176.527605 -4.591690 -179.634001
Spine 28.777979 2.703430 -0.111025
Head 25.393242 -1.617071 1.589881
LeftShoulder -3.728868 -20.233412 -7.415782
LeftArm -7.303550 10.889740 -72.561814
LeftForeArm 19.475611 -0.000000 3.451980
LeftHand 0.863825 0.000000 -9.485366
LeftHandThumb1 -26.253704 0.000000 33.147579
RightShoulder -1.336064 -12.561963 4.943395
RightArm 24.322657 -11.287714 66.358878
RightForeArm -24.811488 -0.000000 15.411094
RightHand -4.975922 0.000000 -2.130877
RightHandThumb1 -24.326973 -0.000000 -32.862282
LeftUpLeg -19.398675 3.430016 -2.833437
LeftLeg 18.956928 -0.000000 -0.000000
LeftFoot -21.749120 23.531023 -14.246089
LeftToeBase 18.377924 -0.000000 -0.000000
RightUpLeg -10.182676 -11.197999 2.951880
RightLeg 12.080071 -0.000000 -0.000000
RightFoot -24.569255 -29.274784 17.192730
RightToeBase 20.201704 -0.000000 -0.000000
144
root 21.132810 35.680311 -19.375523 -176.458356 -4.448985 -179.641712
Spine 28.918147 2.797263 -0.206585
Head 25.291503 -1.596488 1.714799
LeftShoulder -3.668062 -20.247157 -7.262740
LeftArm -7.515060 10.644126 -72.929735
LeftForeArm 19.397985 -0.000000 3.267943
LeftHand 0.823936 -0.000000 -9.264295
LeftHandThumb1 -26.253704 0.000000 33.147579
RightShoulder -1.303343 -12.557719 5.036565
RightArm 24.255224 -11.356929 66.339681
RightForeArm -24.514060 -0.000000 15.315994
RightHand -4.863994 -0.000000 -2.171890
RightHandThumb1 -24.326973 -0.000000 -32.862282
LeftUpLeg -19.068637 3.092118 -2.919118
LeftLeg 17.960487 -0.000000 -0.000000
LeftFoot -21.678246 23.921072 -14.378600
LeftToeBase 18.187550 -0.000000 -0.000000
RightUpLeg -10.376310 -11.133481 2.868968
RightLeg 12.389874 -0.000000 -0.000000
RightFoot -24.648079 -29.238341 17.256802
RightToeBase 20.918681 -0.000000 -0.000000
145
root 21.089274 35.665879 -19.421915 -176.486036 -4.332171 -179.562975
Spine 29.154710 2.841900 -0.242826
Head 25.203034 -1.544838 1.893956
LeftShoulder -3.600620 -20.288728 -7.088318
LeftArm -7.726074 10.465969 -73.313340
LeftForeArm 19.396157 -0.000000 3.064577
LeftHand 0.811165 -0.000000 -9.430747
LeftHandThumb1 -26.253704 0.000000 33.147579
RightShoulder -1.266606 -12.573030 5.140040
RightArm 24.244332 -11.517791 66.230136
RightForeArm -24.285136 -0.000000 15.198583
RightHand -4.715878 -0.000000 -2.052690
RightHandThumb1 -24.326973 -0.000000 -32.862282
LeftUpLeg -18.622362 2.836887 -2.893609
LeftLeg 17.003170 -0.000000 -0.000000
LeftFoot -21.636645 24.174429 -14.344906
LeftToeBase 18.065514 -0.000000 -0.000000
RightUpLeg -10.448315 -10.812290 2.842466
RightLeg 12.687200 -0.000000 -0.000000
RightFoot -24.753113 -29.453346 17.462550
RightToeBase 21.636925 -0.000000 -0.000000
146
root 21.038530 35.647762 -19.456024 -176.465206 -4.147908 -179.539308
Spine 29.384028 2.937816 -0.366429
Head 25.038513 -1.496671 2.073687
LeftShoulder -3.560339 -20.364344 -6.822079
LeftArm -7.900559 10.399540 -73.763497
LeftForeArm 19.209603 0.000000 2.851067
LeftHand 0.813804 -0.000000 -9.243965
LeftHandThumb1 -26.253704 0.000000 33.147579
RightShoulder -1.226168 -12.461732 5.209321
RightArm 24.133469 -11.752086 66.158206
RightForeArm -23.858225 -0.000000 15.230036
RightHand -4.635654 -0.000000 -2.117173
RightHandThumb1 -24.326973 -0.000000 -32.862282
LeftUpLeg -18.232461 2.591122 -2.928865
LeftLeg 16.103976 -0.000000 -0.000000
LeftFoot -21.492702 24.526384 -14.300847
LeftToeBase 17.885662 -0.000000 -0.000000
RightUpLeg -10.659853 -10.438151 2.761408
RightLeg 13.118445 -0.000000 -0.000000
RightFoot -24.923539 -29.668103 17.655545
RightToeBase 22.386644 -0.000000 -0.000000
147
root 20.979209 35.627801 -19.491423 -176.455800 -3.925410 -179.534375
Spine 29.614732 3.057574 -0.491759
Head 24.940137 -1.445030 2.233028
LeftShoulder -3.444104 -20.366260 -6.589976
LeftArm -7.989022 10.424256 -74.188010
LeftForeArm 18.742309 -0.000000 2.596210
LeftHand 0.893719 -0.000000 -8.860791
LeftHandThumb1 -26.253704 0.000000 33.147579
RightShoulder -1.197611 -12.599113 5.287365
RightArm 24.309509 -12.030951 65.922433
RightForeArm -23.424426 -0.000000 15.138898
RightHand -4.445504 -0.000000 -2.227906
RightHandThumb1 -24.326973 -0.000000 -32.862282
LeftUpLeg -17.850844 2.420043 -2.987683
LeftLeg 15.343672 -0.000000 -0.000000
LeftFoot -21.278497 24.814857 -14.249556
LeftToeBase 17.959375 -0.000000 -0.000000
RightUpLeg -10.905121 -10.108077 2.655659
RightLeg 13.625021 -0.000000 -0.000000
RightFoot -25.118709 -29.865372 17.918198
RightToeBase 23.267371 -0.000000 -0.000000
148
root 20.915835 35.604519 -19.521504 -176.466671 -3.690798 -179.551609
Spine 29.936783 3.190766 -0.633118
Head 24.708826 -1.357512 2.378117
LeftShoulder -3.285910 -20.506587 -6.328648
LeftArm -8.164692 10.378755 -74.640723
LeftForeArm 18.554834 -0.000000 2.403841
LeftHand 0.922105 -0.000000 -8.666358
LeftHandThumb1 -26.253704 0.000000 33.147579
RightShoulder -1.180267 -12.508529 5.302427
RightArm 24.308767 -12.336716 65.788851
RightForeArm -23.158064 -0.000000 15.164587
RightHand -4.316207 -0.000000 -2.165504
RightHandThumb1 -24.326973 -0.000000 -32.862282
LeftUpLeg -17.467177 2.240235 -3.066193
LeftLeg 14.742841 -0.000000 -0.000000
LeftFoot -20.758590 25.232181 -14.047782
LeftToeBase 18.397730 -0.000000 -0.000000
RightUpLeg -11.295137 -9.988399 2.542758
RightLeg 14.426652 -0.000000 -0.000000
RightFoot -25.411920 -29.760956 18.174578
RightToeBase 23.500846 -0.000000 -0.000000
149
root 20.847379 35.579649 -19.546812 -176.463769 -3.429710 -179.570240
Spine 30.264188 3.310639 -0.797642
Head 24.485952 -1.277066 2.516985
LeftShoulder -3.107319 -20.656403 -6.081501
LeftArm -8.321826 10.257014 -75.053425
LeftForeArm 18.621822 0.000000 2.246765
LeftHand 1.041899 -0.000000 -8.617914
LeftHandThumb1 -26.253704 0.000000 33.147579
RightShoulder -1.150223 -12.507006 5.333367
RightArm 24.467252 -12.745749 65.514248
RightForeArm -22.795658 -0.000000 15.153215
RightHand -4.190857 -0.000000 -2.216033
RightHandThumb1 -24.326973 -0.000000 -32.862282
LeftUpLeg -17.145003 2.133970 -3.179601
LeftLeg 14.343174 -0.000000 -0.000000
LeftFoot -19.958510 25.857179 -13.719198
LeftToeBase 18.708394 -0.000000 -0.000000
RightUpLeg -11.652530 -9.439544 2.394148
RightLeg 15.153853 -0.000000 -0.000000
RightFoot -25.796840 -30.006983 18.580422
RightToeBase 23.456273 -0.000000 -0.000000
150
root 20.779238 35.554384 -19.564775 -176.463575 -3.132551 -179.634645
Spine 30.663008 3.504957 -1.021972
Head 24.146527 -1.194928 2.694507
LeftShoulder -2.949318 -20.722401 -5.801111
LeftArm -8.263493 10.464852 -75.467454
LeftForeArm 18.369058 -0.000000 2.087985
LeftHand 1.036733 -0.000000 -8.647169
LeftHandThumb1 -26.253704 0.000000 33.147579
RightShoulder -1.136183 -12.397119 5.363276
RightArm 24.556787 -13.249645 65.231839
RightForeArm -22.393174 0.000000 15.200642
RightHand -3.898771 -0.000000 -2.300878
RightHandThumb1 -24.326973 -0.000000 -32.862282
LeftUpLeg -16.921281 2.179234 -3.358611
LeftLeg 14.164188 -0.000000 -0.000000
LeftFoot -19.225376 26.363880 -13.472174
LeftToeBase 18.806931 -0.000000 -0.000000
RightUpLeg -12.076434 -8.762666 2.200452
RightLeg 15.997605 -0.000000 -0.000000
RightFoot -26.218381 -30.336475 18.899909
RightToeBase 23.532612 -0.000000 -0.000000
151
root 20.708888 35.528131 -19.573411 -176.430064 -2.886916 -179.739869
Spine 31.069520 3.641185 -1.312829
Head 23.749890 -1.130381 2.886259
LeftShoulder -2.711708 -20.904418 -5.495021
LeftArm -8.306072 10.397289 -75.843871
LeftForeArm 18.124808 -0.000000 1.938778
LeftHand 1.258274 0.000000 -8.406803
LeftHandThumb1 -26.253704 0.000000 33.147579
RightShoulder -1.150673 -12.349821 5.421933
RightArm 24.837882 -13.829679 64.842585
RightForeArm -22.070196 0.000000 15.184235
RightHand -3.590242 -0.000000 -2.356263
RightHandThumb1 -24.326973 -0.000000 -32.862282
LeftUpLeg -16.834475 2.169690 -3.575779
LeftLeg 14.089169 -0.000000 -0.000000
LeftFoot -18.898683 26.775734 -13.209496
LeftToeBase 19.165322 -0.000000 -0.000000
RightUpLeg -12.610349 -8.088461 1.969240
RightLeg 16.965629 -0.000000 -0.000000
RightFoot -26.708906 -30.736649 19.354620
RightToeBase 23.640774 -0.000000 -0.000000
152
root 20.626653 35.501921 -19.579293 -176.397704 -2.584645 -180.006036
Spine 31.523164 3.862533 -1.800469
Head 23.365900 -1.090225 3.171018
LeftShoulder -2.463861 -21.127271 -5.182229
LeftArm -8.315551 10.502501 -76.187231
LeftForeArm 17.851425 -0.000000 1.860787
LeftHand 1.133974 -0.000000 -8.288022
LeftHandThumb1 -26.253704 0.000000 33.147579
RightShoulder -1.153184 -12.248360 5.530264
RightArm 25.064275 -14.343332 64.489757
RightForeArm -21.912561 -0.000000 15.284885
RightHand -3.412404 -0.000000 -2.533314
RightHandThumb1 -24.326973 -0.000000 -32.862282
LeftUpLeg -16.787041 2.296002 -3.995919
LeftLeg 13.968367 -0.000000 -0.000000
LeftFoot -18.792049 27.149995 -12.912172
LeftToeBase 19.803370 -0.000000 -0.000000
RightUpLeg -13.221553 -7.293689 1.554650
RightLeg 18.083442 -0.000000 -0.000000
RightFoot -27.286202 -31.154201 19.751364
RightToeBase 23.517618 -0.000000 -0.000000
153
root 20.544705 35.472477 -19.571966 -176.311547 -2.261584 -180.311022
Spine 31.968609 4.162957 -2.321901
Head 22.897542 -1.076522 3.466666
LeftShoulder -2.126440 -21.295884 -4.843979
LeftArm -8.221283 10.633591 -76.528932
LeftForeArm 17.604104 -0.000000 1.789505
LeftHand 1.171663 -0.000000 -8.486408
LeftHandThumb1 -26.253704 0.000000 33.147579
RightShoulder -1.200516 -12.213948 5.628528
RightArm 25.388751 -14.800493 64.163934
RightForeArm -22.096158 0.000000 15.409489
RightHand -3.227053 -0.000000 -2.550461
RightHandThumb1 -24.326973 -0.000000 -32.862282
LeftUpLeg -16.877245 2.458899 -4.469789
LeftLeg 13.876559 -0.000000 -0.000000
LeftFoot -18.485180 27.540690 -12.646099
LeftToeBase 20.247644 -0.000000 -0.000000
RightUpLeg -13.989495 -6.562104 1.117914
RightLeg 19.330393 -0.000000 -0.000000
RightFoot -27.805121 -31.543634 20.073746
RightToeBase 23.397759 -0.000000 -0.000000
